<svg width="40" height="40" viewBox="0 0 100 100" fill="none" xmlns="http://www.w3.org/2000/svg">
<mask id="mask0_17_7" style="mask-type:alpha" maskUnits="userSpaceOnUse" x="0" y="0" width="100" height="100">
<rect width="100" height="100" fill="#D9D9D9"/>
</mask>
<g mask="url(#mask0_17_7)">
<path d="M24.3752 71.2499C27.9168 68.5416 31.8752 66.4062 36.2502 64.8437C40.6252 63.2812 45.2085 62.4999 50.0002 62.4999C54.7918 62.4999 59.3752 63.2812 63.7502 64.8437C68.1252 66.4062 72.0835 68.5416 75.6252 71.2499C78.0557 68.4027 79.9481 65.1735 81.3022 61.5624C82.6564 57.9513 83.3335 54.0971 83.3335 49.9999C83.3335 40.7638 80.087 32.8992 73.5939 26.4062C67.1009 19.9131 59.2363 16.6666 50.0002 16.6666C40.7641 16.6666 32.8995 19.9131 26.4064 26.4062C19.9134 32.8992 16.6668 40.7638 16.6668 49.9999C16.6668 54.0971 17.3439 57.9513 18.6981 61.5624C20.0522 65.1735 21.9446 68.4027 24.3752 71.2499ZM50.0002 54.1666C45.9029 54.1666 42.4481 52.7603 39.6356 49.9478C36.8231 47.1353 35.4168 43.6805 35.4168 39.5833C35.4168 35.486 36.8231 32.0312 39.6356 29.2187C42.4481 26.4062 45.9029 24.9999 50.0002 24.9999C54.0974 24.9999 57.5522 26.4062 60.3647 29.2187C63.1772 32.0312 64.5835 35.486 64.5835 39.5833C64.5835 43.6805 63.1772 47.1353 60.3647 49.9478C57.5522 52.7603 54.0974 54.1666 50.0002 54.1666ZM50.0002 91.6666C44.2363 91.6666 38.8196 90.5728 33.7502 88.3853C28.6807 86.1978 24.271 83.2291 20.521 79.4791C16.771 75.7291 13.8022 71.3194 11.6147 66.2499C9.42725 61.1805 8.3335 55.7638 8.3335 49.9999C8.3335 44.236 9.42725 38.8194 11.6147 33.7499C13.8022 28.6805 16.771 24.2708 20.521 20.5208C24.271 16.7708 28.6807 13.802 33.7502 11.6145C38.8196 9.427 44.2363 8.33325 50.0002 8.33325C55.7641 8.33325 61.1807 9.427 66.2502 11.6145C71.3196 13.802 75.7293 16.7708 79.4793 20.5208C83.2293 24.2708 86.1981 28.6805 88.3856 33.7499C90.5731 38.8194 91.6668 44.236 91.6668 49.9999C91.6668 55.7638 90.5731 61.1805 88.3856 66.2499C86.1981 71.3194 83.2293 75.7291 79.4793 79.4791C75.7293 83.2291 71.3196 86.1978 66.2502 88.3853C61.1807 90.5728 55.7641 91.6666 50.0002 91.6666ZM50.0002 83.3333C53.6807 83.3333 57.1529 82.7951 60.4168 81.7187C63.6807 80.6423 66.6668 79.0971 69.3752 77.0833C66.6668 75.0694 63.6807 73.5242 60.4168 72.4478C57.1529 71.3714 53.6807 70.8332 50.0002 70.8332C46.3196 70.8332 42.8474 71.3714 39.5835 72.4478C36.3196 73.5242 33.3335 75.0694 30.6252 77.0833C33.3335 79.0971 36.3196 80.6423 39.5835 81.7187C42.8474 82.7951 46.3196 83.3333 50.0002 83.3333ZM50.0002 45.8333C51.8057 45.8333 53.2988 45.243 54.4793 44.0624C55.6599 42.8819 56.2502 41.3888 56.2502 39.5833C56.2502 37.7777 55.6599 36.2846 54.4793 35.1041C53.2988 33.9235 51.8057 33.3333 50.0002 33.3333C48.1946 33.3333 46.7016 33.9235 45.521 35.1041C44.3404 36.2846 43.7502 37.7777 43.7502 39.5833C43.7502 41.3888 44.3404 42.8819 45.521 44.0624C46.7016 45.243 48.1946 45.8333 50.0002 45.8333Z" fill="#F0BDF9"/>
</g>
</svg>
