<svg width="40" height="40" viewBox="0 0 100 100" fill="none" xmlns="http://www.w3.org/2000/svg">
<mask id="mask0_5_26" style="mask-type:alpha" maskUnits="userSpaceOnUse" x="0" y="0" width="100" height="100">
<rect width="100" height="100" fill="#D9D9D9"/>
</mask>
<g mask="url(#mask0_5_26)">
<path d="M8.3335 91.6666V74.9999H91.6668V91.6666H79.1668V83.3333H56.2502V91.6666H43.7502V83.3333H20.8335V91.6666H8.3335ZM25.0002 66.6666C23.8196 66.6666 22.83 66.2673 22.0314 65.4687C21.2328 64.6701 20.8335 63.6805 20.8335 62.4999V12.4999C20.8335 11.3194 21.2328 10.3298 22.0314 9.53117C22.83 8.73256 23.8196 8.33325 25.0002 8.33325H75.0002C76.1807 8.33325 77.1703 8.73256 77.9689 9.53117C78.7675 10.3298 79.1668 11.3194 79.1668 12.4999V62.4999C79.1668 63.6805 78.7675 64.6701 77.9689 65.4687C77.1703 66.2673 76.1807 66.6666 75.0002 66.6666H25.0002ZM29.1668 58.3333H70.8335V16.6666H29.1668V58.3333ZM37.5002 33.3333H62.5002V24.9999H37.5002V33.3333Z" fill="white"/>
</g>
</svg>
