<svg width="40" height="40" viewBox="0 0 100 100" fill="none" xmlns="http://www.w3.org/2000/svg">
<mask id="mask0_4_20" style="mask-type:alpha" maskUnits="userSpaceOnUse" x="0" y="0" width="100" height="100">
<rect width="100" height="100" fill="#D9D9D9"/>
</mask>
<g mask="url(#mask0_4_20)">
<path d="M45.8333 80.9374V52.3958L20.8333 37.9166V66.4583L45.8333 80.9374ZM54.1667 80.9374L79.1667 66.4583V37.9166L54.1667 52.3958V80.9374ZM45.8333 90.5208L16.6667 73.7499C15.3472 72.986 14.3229 71.9791 13.5938 70.7291C12.8646 69.4791 12.5 68.0902 12.5 66.5624V33.4374C12.5 31.9096 12.8646 30.5208 13.5938 29.2708C14.3229 28.0208 15.3472 27.0138 16.6667 26.2499L45.8333 9.47909C47.1528 8.7152 48.5417 8.33325 50 8.33325C51.4583 8.33325 52.8472 8.7152 54.1667 9.47909L83.3333 26.2499C84.6528 27.0138 85.6771 28.0208 86.4063 29.2708C87.1354 30.5208 87.5 31.9096 87.5 33.4374V66.5624C87.5 68.0902 87.1354 69.4791 86.4063 70.7291C85.6771 71.9791 84.6528 72.986 83.3333 73.7499L54.1667 90.5208C52.8472 91.2846 51.4583 91.6666 50 91.6666C48.5417 91.6666 47.1528 91.2846 45.8333 90.5208ZM66.6667 35.5208L74.6875 30.9374L50 16.6666L41.875 21.3541L66.6667 35.5208ZM50 45.2083L58.125 40.5208L33.4375 26.2499L25.3125 30.9374L50 45.2083Z" fill="white"/>
</g>
</svg>
