<svg width="40" height="40" viewBox="0 0 100 100" fill="none" xmlns="http://www.w3.org/2000/svg">
<mask id="mask0_9_57" style="mask-type:alpha" maskUnits="userSpaceOnUse" x="0" y="0" width="100" height="100">
<rect x="100" y="100" width="100" height="100" transform="rotate(-180 100 100)" fill="#D9D9D9"/>
</mask>
<g mask="url(#mask0_9_57)">
<path d="M79.1667 12.5C81.4583 12.5 83.4201 13.316 85.0521 14.9479C86.684 16.5799 87.5 18.5417 87.5 20.8333L87.5 79.1667C87.5 81.4583 86.684 83.4201 85.0521 85.0521C83.4201 86.684 81.4583 87.5 79.1667 87.5H50V79.1667H79.1667L79.1667 20.8333H50V12.5H79.1667ZM33.3333 29.1667L39.0625 35.2083L28.4375 45.8333L62.5 45.8333V54.1667L28.4375 54.1667L39.0625 64.7917L33.3333 70.8333L12.5 50L33.3333 29.1667Z" fill="white"/>
</g>
</svg>
