<svg width="28" height="28" viewBox="0 0 28 28" fill="none" xmlns="http://www.w3.org/2000/svg">
<path d="M28 26.586L20.448 19.034C22.2628 16.8553 23.1678 14.0608 22.9747 11.2319C22.7816 8.40297 21.5053 5.75739 19.4112 3.84552C17.3172 1.93364 14.5667 0.902675 11.732 0.967086C8.89717 1.0315 6.19635 2.18633 4.19134 4.19134C2.18633 6.19635 1.0315 8.89717 0.967086 11.732C0.902675 14.5667 1.93364 17.3172 3.84552 19.4112C5.75739 21.5053 8.40297 22.7816 11.2319 22.9747C14.0608 23.1678 16.8553 22.2628 19.034 20.448L26.586 28L28 26.586ZM3 12C3 10.22 3.52784 8.47991 4.51677 6.99987C5.50571 5.51983 6.91131 4.36627 8.55585 3.68508C10.2004 3.0039 12.01 2.82567 13.7558 3.17293C15.5016 3.5202 17.1053 4.37737 18.364 5.63604C19.6226 6.89471 20.4798 8.49836 20.8271 10.2442C21.1743 11.99 20.9961 13.7996 20.3149 15.4442C19.6337 17.0887 18.4802 18.4943 17.0001 19.4832C15.5201 20.4722 13.78 21 12 21C9.61386 20.9974 7.32622 20.0483 5.63896 18.361C3.95171 16.6738 3.00265 14.3861 3 12Z" fill="#777777"/>
</svg>
