<svg width="40" height="40" viewBox="0 0 100 100" fill="none" xmlns="http://www.w3.org/2000/svg">
<mask id="mask0_5_32" style="mask-type:alpha" maskUnits="userSpaceOnUse" x="0" y="0" width="100" height="100">
<rect width="100" height="100" fill="#D9D9D9"/>
</mask>
<g mask="url(#mask0_5_32)">
<path d="M42.9168 82.4999C46.0418 76.1805 50.2085 71.9617 55.4168 69.8437C60.6252 67.7256 65.0696 66.6666 68.7502 66.6666C70.3474 66.6666 71.9099 66.8055 73.4377 67.0833C74.9654 67.361 76.4585 67.7083 77.9168 68.1249C79.5835 65.486 80.9029 62.6388 81.8752 59.5833C82.8474 56.5277 83.3335 53.3333 83.3335 49.9999C83.3335 40.6944 80.1043 32.8124 73.646 26.3541C67.1877 19.8958 59.3057 16.6666 50.0002 16.6666C40.6946 16.6666 32.8127 19.8958 26.3543 26.3541C19.896 32.8124 16.6668 40.6944 16.6668 49.9999C16.6668 53.1249 17.0661 56.111 17.8647 58.9583C18.6634 61.8055 19.8613 64.4444 21.4585 66.8749C24.3057 65.486 27.2571 64.4096 30.3127 63.6458C33.3682 62.8819 36.4585 62.4999 39.5835 62.4999C41.8057 62.4999 43.9411 62.6909 45.9898 63.0728C48.0384 63.4548 50.0696 63.9583 52.0835 64.5833C50.4863 65.4166 48.9759 66.3888 47.5523 67.4999C46.1286 68.611 44.7918 69.7916 43.5418 71.0416C42.7085 70.9027 41.9967 70.8333 41.4064 70.8333H39.5835C37.3613 70.8333 35.1564 71.0763 32.9689 71.5624C30.7814 72.0485 28.6807 72.7777 26.6668 73.7499C28.8891 75.9721 31.3717 77.8298 34.1147 79.3228C36.8578 80.8159 39.7918 81.8749 42.9168 82.4999ZM50.0002 91.6666C44.2363 91.6666 38.8196 90.5728 33.7502 88.3853C28.6807 86.1978 24.271 83.2291 20.521 79.4791C16.771 75.7291 13.8022 71.3194 11.6147 66.2499C9.42725 61.1805 8.3335 55.7638 8.3335 49.9999C8.3335 44.236 9.42725 38.8194 11.6147 33.7499C13.8022 28.6805 16.771 24.2708 20.521 20.5208C24.271 16.7708 28.6807 13.802 33.7502 11.6145C38.8196 9.427 44.2363 8.33325 50.0002 8.33325C55.7641 8.33325 61.1807 9.427 66.2502 11.6145C71.3196 13.802 75.7293 16.7708 79.4793 20.5208C83.2293 24.2708 86.1981 28.6805 88.3856 33.7499C90.5731 38.8194 91.6668 44.236 91.6668 49.9999C91.6668 55.7638 90.5731 61.1805 88.3856 66.2499C86.1981 71.3194 83.2293 75.7291 79.4793 79.4791C75.7293 83.2291 71.3196 86.1978 66.2502 88.3853C61.1807 90.5728 55.7641 91.6666 50.0002 91.6666ZM39.5835 56.2499C35.5557 56.2499 32.1182 54.8263 29.271 51.9791C26.4238 49.1319 25.0002 45.6944 25.0002 41.6666C25.0002 37.6388 26.4238 34.2013 29.271 31.3541C32.1182 28.5069 35.5557 27.0833 39.5835 27.0833C43.6113 27.0833 47.0488 28.5069 49.896 31.3541C52.7432 34.2013 54.1668 37.6388 54.1668 41.6666C54.1668 45.6944 52.7432 49.1319 49.896 51.9791C47.0488 54.8263 43.6113 56.2499 39.5835 56.2499ZM39.5835 47.9166C41.3196 47.9166 42.7953 47.3089 44.0106 46.0937C45.2259 44.8784 45.8335 43.4027 45.8335 41.6666C45.8335 39.9305 45.2259 38.4548 44.0106 37.2395C42.7953 36.0242 41.3196 35.4166 39.5835 35.4166C37.8474 35.4166 36.3717 36.0242 35.1564 37.2395C33.9411 38.4548 33.3335 39.9305 33.3335 41.6666C33.3335 43.4027 33.9411 44.8784 35.1564 46.0937C36.3717 47.3089 37.8474 47.9166 39.5835 47.9166ZM68.7502 60.4166C65.8335 60.4166 63.3682 59.4096 61.3543 57.3958C59.3404 55.3819 58.3335 52.9166 58.3335 49.9999C58.3335 47.0833 59.3404 44.618 61.3543 42.6041C63.3682 40.5902 65.8335 39.5833 68.7502 39.5833C71.6668 39.5833 74.1321 40.5902 76.146 42.6041C78.1599 44.618 79.1668 47.0833 79.1668 49.9999C79.1668 52.9166 78.1599 55.3819 76.146 57.3958C74.1321 59.4096 71.6668 60.4166 68.7502 60.4166Z" fill="white"/>
</g>
</svg>
